# Blender v2.93.1 OBJ File: ''
# www.blender.org
mtllib Spikes.mtl
o SPIKESout
v 0.019261 0.376219 -0.273569
v 0.012116 0.377545 -0.107041
v -0.001037 0.360931 -0.110548
v 0.007683 0.362292 -0.268585
v -0.006485 0.376947 -0.108090
v 0.012116 0.377545 -0.107041
v 0.019261 0.376219 -0.273569
v 0.009727 0.386540 -0.280060
v 0.004321 0.397065 -0.104307
v 0.010914 0.362859 -0.303955
v 0.019261 0.376219 -0.273569
v 0.007683 0.362292 -0.268585
v 0.010914 0.362859 -0.303955
v 0.009727 0.386540 -0.280060
v 0.019261 0.376219 -0.273569
v -0.002580 0.374416 -0.274801
v -0.004504 0.419984 -0.100681
v 0.003753 0.440854 -0.098570
v 0.014612 0.460756 -0.334974
v 0.026096 0.448158 -0.324039
v 0.014612 0.460756 -0.334974
v 0.016787 0.416633 -0.101743
v 0.010040 0.427484 -0.322943
v 0.004321 0.397065 -0.104307
v 0.026096 0.448158 -0.324039
v 0.018846 0.431528 -0.362154
v 0.014612 0.460756 -0.334974
v 0.026096 0.448158 -0.324039
v 0.018846 0.431528 -0.362154
v 0.014612 0.460756 -0.334974
v -0.002214 0.446430 -0.330814
v 0.010040 0.427484 -0.322943
v 0.018846 0.431528 -0.362154
v 0.018846 0.431528 -0.362154
v 0.021494 0.515060 -0.256931
v 0.010721 0.461073 -0.092704
v 0.003753 0.440854 -0.098570
v -0.002210 0.480048 -0.085924
v 0.010721 0.461073 -0.092704
v 0.021494 0.515060 -0.256931
v 0.007707 0.528127 -0.255273
v 0.011352 0.513160 -0.308658
v 0.006730 0.501564 -0.260052
v 0.011352 0.513160 -0.308658
v -0.006172 0.514845 -0.258348
v -0.015659 0.461165 -0.094745
vt 0.922608 -0.199154
vt 0.584117 -0.199812
vt 0.584113 -0.200845
vt 0.922602 -0.200208
vt 0.584124 -0.197083
vt 0.584127 -0.196049
vt 0.922632 -0.195409
vt 0.922636 -0.194590
vt 0.584129 -0.195202
vt 0.995986 -0.198120
vt 0.922613 -0.198336
vt 0.922608 -0.199154
vt 0.996001 -0.196059
vt 0.922632 -0.195409
vt 0.922636 -0.194590
vt 0.922624 -0.196463
vt 0.584448 -0.183340
vt 0.584389 -0.179774
vt 0.954581 -0.183616
vt 0.954556 -0.183494
vt 0.956455 -0.181122
vt 0.584321 -0.184153
vt 0.952983 -0.185966
vt 0.584372 -0.185047
vt 0.953478 -0.185153
vt 0.996568 -0.184434
vt 0.955550 -0.181753
vt 0.956092 -0.180865
vt 0.996552 -0.181025
vt 0.954002 -0.184294
vt 0.955022 -0.182622
vt 0.953478 -0.185153
vt 0.996609 -0.182772
vt 0.996556 -0.180486
vt 0.922546 -0.171599
vt 0.584080 -0.171114
vt 0.584084 -0.171776
vt 0.584064 -0.166433
vt 0.584066 -0.167552
vt 0.922523 -0.168067
vt 0.922518 -0.167083
vt 0.995882 -0.168710
vt 0.922552 -0.172381
vt 0.995885 -0.169172
vt 0.922529 -0.168849
vt 0.584071 -0.168214
vn 0.9932 -0.0641 -0.0970
vn 0.9936 -0.1096 0.0258
vn -0.0308 -0.9995 -0.0095
vn -0.0285 -0.9996 0.0026
vn -0.9962 0.0755 -0.0437
vn 0.0382 0.9140 -0.4040
vn -0.2787 -0.7175 -0.6383
vn 0.0767 -0.3763 -0.9233
vn 0.0767 -0.3764 -0.9233
vn -0.9766 -0.0171 -0.2143
vn -0.0285 -0.9996 0.0025
vn -0.9992 0.0267 -0.0300
vn 0.5005 -0.3891 -0.7734
vn 0.0703 0.9305 -0.3594
vn 0.9961 -0.0575 -0.0672
vn 0.0703 0.9306 -0.3593
vn 0.5006 -0.3891 -0.7733
vn 0.9983 -0.0521 0.0279
vn 0.1246 -0.9863 -0.1084
vn -0.2787 -0.7175 -0.6384
vn 0.1246 -0.9863 -0.1085
vn 0.1869 -0.3674 -0.9111
vn 0.1869 -0.3673 -0.9111
vn -0.9511 0.0710 -0.3005
vn -0.9512 0.0709 -0.3004
vn -0.9511 0.0709 -0.3005
vn 0.9929 0.0890 -0.0793
vn 0.9902 0.0996 0.0977
vn 0.5006 -0.3890 -0.7733
vn 0.0133 0.9494 0.3138
vn 0.9902 0.0996 0.0976
vn -0.0001 0.9998 0.0196
vn 0.0745 -0.0248 -0.9969
vn -0.0215 -0.9559 -0.2928
vn 0.0744 -0.0247 -0.9969
vn -0.9765 0.1103 -0.1851
vn -0.9941 -0.0721 -0.0813
usemtl stitch3
s 1
f 1/1/1 2/2/2 3/3/3
f 3/3/3 4/4/4 1/1/1
f 4/4/4 3/3/3 5/5/5
f 6/6/2 7/7/1 8/8/6
f 8/8/6 9/9/7 6/6/2
f 10/10/8 11/11/1 12/12/4
f 13/13/9 14/14/6 15/15/1
f 5/5/5 16/16/10 4/4/4
f 9/9/7 8/8/6 16/16/10
f 13/13/9 12/12/11 16/16/10
f 13/13/9 16/16/10 14/14/6
f 16/16/10 5/5/5 9/9/7
f 17/17/12 18/18/13 19/19/14
f 20/20/15 21/21/16 18/18/17
f 18/18/17 22/22/18 20/20/15
f 23/23/19 20/20/15 22/22/18
f 22/22/18 24/24/20 23/23/19
f 25/25/15 23/23/21 26/26/22
f 27/27/16 28/28/15 29/29/23
f 30/30/16 31/31/24 17/17/12
f 31/31/24 23/23/19 24/24/20
f 24/24/20 17/17/12 31/31/24
f 32/32/21 31/31/25 33/33/23
f 31/31/26 27/27/16 34/34/23
f 35/35/27 36/36/28 37/37/29
f 38/38/30 39/39/31 40/40/27
f 40/40/27 41/41/32 38/38/30
f 41/41/32 40/40/27 42/42/33
f 37/37/29 43/43/34 35/35/27
f 44/44/35 35/35/27 43/43/34
f 44/44/35 45/45/36 41/41/32
f 38/38/30 41/41/32 45/45/36
f 37/37/29 45/45/36 43/43/34
f 44/44/35 43/43/34 45/45/36
f 45/45/36 46/46/37 38/38/30
f 45/45/36 37/37/29 46/46/37
